<svg version="1" xmlns="http://www.w3.org/2000/svg" width="800" height="800" viewBox="0 0 600.000000 600.000000"><path d="M416.6 6.7c-16.3 2.7-30.3 10.7-43.8 24.8-9.3 9.7-21.8 30.3-29.3 48.6-2.2 5.2-11.4 30.6-12.5 34.4-.1.5-.4 1.4-.6 2-.7 2.6-5.7 20.3-6.4 23-.5 1.6-3 11.1-5.8 21-2.7 9.9-5.7 21.4-6.7 25.5-4.3 17.9-9.6 24.3-20.3 24.2-12.3 0-33.7-1.4-35.4-2.3-2.1-1.1-3.8-4.1-4.4-7.7-.3-1.5-1.3-7-2.4-12.2-1-5.2-2.1-11.3-2.5-13.5-.4-2.2-.9-5.1-1.1-6.5-3.2-18.3-9.2-42-13.5-52.8-13.5-34.1-40.8-67.4-72.9-88.9-17.9-11.9-38.9-18.3-56.4-17-23.6 1.8-40 17.1-39.7 37.2.2 12.9 1.9 19.8 8.3 33.3 5.3 11.1 8 14.6 22.3 29.7 8.3 8.7 31.1 32.8 34.7 36.6 23.5 25.1 47.1 57.3 50.4 68.5 2 6.8.8 9.4-6.1 14.1-19.3 13.1-31.7 34.6-43 74.6-4.5 16-9.9 32.6-11.9 36.4-1.4 2.9-4.3 12.9-5.2 18.7-1.3 7.4-1.2 26.4 0 32.6 6.6 32.1 32.2 56.6 74.7 71.5l10.7 3.7 2.5 11.1c3.1 13.1 4.4 21.8 6.7 42.7 1.3 11.3 1.6 30.6.6 35.5-1.3 6.5-2 14.4-2 21.8-.1 7.8 0 7.9 3.6 11.2 5.4 5 9.9 5.8 29.8 5.8 19 0 22.2-.7 26.9-5.7 2.3-2.5 2.4-3.2 2.7-18.3.3-20.3 1.2-30.3 2.9-32.9 1.2-1.9 2.8-2.3 6.7-1.5 2.1.4 3.1 9 3.2 28.6.1 23 .4 24.2 5.9 27.2 2.6 1.4 5.8 1.8 16.7 1.8 7.4 0 17.3-.4 22-.8 4.7-.4 11-1 14-1.3 3-.2 7.1-.7 9-.9 1.9-.3 6.2-.7 9.5-1 5.8-.6 20.9-2.4 25-3 1.1-.1 4.7-.6 8-.9 3.3-.4 7.4-.9 9-1.1 1.7-.3 5-.7 7.5-1 5.1-.6 8.5-1.1 19-2.5 4.1-.6 9.3-1.3 11.5-1.6 3.2-.5 15.4-3 28.5-5.9 3.6-.8 14.8-5 18-6.8 3.9-2.1 9.5-6.2 12.1-8.8 4-4 10.6-16 11.5-20.9 0-.3.4-2.1.7-4 1.6-8 1.7-10 1.7-20 0-10.1-.4-14.8-1.5-21.6-.5-2.9-.3-3.2 3.9-4.8 13.6-5.2 18.5-20.9 9.5-31-4.8-5.5-14.9-8.3-22-6.1-1.5.5-2.7-1.1-6.8-9.2-8.5-16.9-18.5-29.6-30.4-38.6-4-3-14.6-9.7-23.7-14.7-9.1-5.1-18.3-10.4-20.5-11.8-2.2-1.4-4.1-2.6-4.1-2.7-.1 0-.5-2.7-.8-6-.4-3.3-1.1-8.3-1.6-11-.6-2.8-1.2-6.1-1.5-7.4-2-10.4-8.9-29-17.8-48.1-4-8.6-10.2-26.6-11.1-32.4-.4-2.1-.8-4.2-1.1-4.6-.9-1.5-2-11.6-2-18.5 0-5.1.9-9.5 3-16 3.9-11.9 17.2-38.1 32.5-64 31.7-53.7 44.6-81.6 47.5-102.5 5.6-40.1-11.8-61.1-45.9-55.3z"/></svg>